<?xml version="1.0" encoding="UTF-8" standalone="no"?><!DOCTYPE svg PUBLIC "-//W3C//DTD SVG 1.1//EN" "http://www.w3.org/Graphics/SVG/1.1/DTD/svg11.dtd"><!-- Generated by graphviz version 2.40.1 (20161225.0304)
 --><!-- Title: %0 Pages: 1 --><svg xmlns="http://www.w3.org/2000/svg" xmlns:xlink="http://www.w3.org/1999/xlink" width="3573pt" height="499pt" viewBox="0.00 0.00 3573.37 498.83">
<g id="graph0" class="graph" transform="scale(1 1) rotate(0) translate(4 494.8313)">
<title>%0</title>
<polygon fill="#ffffff" stroke="transparent" points="-4,4 -4,-494.8313 3569.3718,-494.8313 3569.3718,4 -4,4"/>
<!-- [root] aws_iam_instance_profile.hpc_iam_profile (expand) -->
<g id="node1" class="node">
<title>[root] aws_iam_instance_profile.hpc_iam_profile (expand)</title>
<polygon fill="none" stroke="#000000" points="873.2074,-263.4156 614.2562,-263.4156 614.2562,-227.4156 873.2074,-227.4156 873.2074,-263.4156"/>
<text text-anchor="middle" x="743.7318" y="-241.2156" font-family="Times,serif" font-size="14.00" fill="#000000">aws_iam_instance_profile.hpc_iam_profile</text>
</g>
<!-- [root] aws_iam_role.hpc_iam_role (expand) -->
<g id="node4" class="node">
<title>[root] aws_iam_role.hpc_iam_role (expand)</title>
<polygon fill="none" stroke="#000000" points="265.2354,-180 90.2282,-180 90.2282,-144 265.2354,-144 265.2354,-180"/>
<text text-anchor="middle" x="177.7318" y="-157.8" font-family="Times,serif" font-size="14.00" fill="#000000">aws_iam_role.hpc_iam_role</text>
</g>
<!-- [root] aws_iam_instance_profile.hpc_iam_profile (expand)&#45;&gt;[root] aws_iam_role.hpc_iam_role (expand) -->
<g id="edge1" class="edge">
<title>[root] aws_iam_instance_profile.hpc_iam_profile (expand)-&gt;[root] aws_iam_role.hpc_iam_role (expand)</title>
<path fill="none" stroke="#000000" d="M638.6439,-227.357C615.3163,-223.4864 590.6999,-219.5088 567.7318,-216 468.2655,-200.8048 354.2377,-185.2298 275.2824,-174.736"/>
<polygon fill="#000000" stroke="#000000" points="275.7216,-171.2637 265.3481,-173.4179 274.8008,-178.2029 275.7216,-171.2637"/>
</g>
<!-- [root] aws_iam_policy.hpc_iam_policy (expand) -->
<g id="node2" class="node">
<title>[root] aws_iam_policy.hpc_iam_policy (expand)</title>
<polygon fill="none" stroke="#000000" points="201.6959,-108 -.2323,-108 -.2323,-72 201.6959,-72 201.6959,-108"/>
<text text-anchor="middle" x="100.7318" y="-85.8" font-family="Times,serif" font-size="14.00" fill="#000000">aws_iam_policy.hpc_iam_policy</text>
</g>
<!-- [root] provider[&quot;registry.terraform.io/hashicorp/aws&quot;] -->
<g id="node18" class="node">
<title>[root] provider["registry.terraform.io/hashicorp/aws"]</title>
<polygon fill="none" stroke="#000000" points="387.7318,-36 112.7413,-18 387.7318,0 662.7223,-18 387.7318,-36"/>
<text text-anchor="middle" x="387.7318" y="-13.8" font-family="Times,serif" font-size="14.00" fill="#000000">provider["registry.terraform.io/hashicorp/aws"]</text>
</g>
<!-- [root] aws_iam_policy.hpc_iam_policy (expand)&#45;&gt;[root] provider[&quot;registry.terraform.io/hashicorp/aws&quot;] -->
<g id="edge2" class="edge">
<title>[root] aws_iam_policy.hpc_iam_policy (expand)-&gt;[root] provider["registry.terraform.io/hashicorp/aws"]</title>
<path fill="none" stroke="#000000" d="M172.7836,-71.9243C218.1683,-60.5386 276.3543,-45.9414 320.7396,-34.8064"/>
<polygon fill="#000000" stroke="#000000" points="321.7141,-38.1705 330.5619,-32.3423 320.0107,-31.3809 321.7141,-38.1705"/>
</g>
<!-- [root] aws_iam_policy_attachment.attach (expand) -->
<g id="node3" class="node">
<title>[root] aws_iam_policy_attachment.attach (expand)</title>
<polygon fill="none" stroke="#000000" points="258.335,-263.4156 45.1286,-263.4156 45.1286,-227.4156 258.335,-227.4156 258.335,-263.4156"/>
<text text-anchor="middle" x="151.7318" y="-241.2156" font-family="Times,serif" font-size="14.00" fill="#000000">aws_iam_policy_attachment.attach</text>
</g>
<!-- [root] aws_iam_policy_attachment.attach (expand)&#45;&gt;[root] aws_iam_policy.hpc_iam_policy (expand) -->
<g id="edge3" class="edge">
<title>[root] aws_iam_policy_attachment.attach (expand)-&gt;[root] aws_iam_policy.hpc_iam_policy (expand)</title>
<path fill="none" stroke="#000000" d="M122.3261,-227.1751C106.8187,-215.7466 89.2782,-199.495 80.7318,-180 71.9614,-159.994 78.2258,-135.741 85.9874,-117.4546"/>
<polygon fill="#000000" stroke="#000000" points="89.2307,-118.7794 90.2388,-108.2327 82.8736,-115.8488 89.2307,-118.7794"/>
</g>
<!-- [root] aws_iam_policy_attachment.attach (expand)&#45;&gt;[root] aws_iam_role.hpc_iam_role (expand) -->
<g id="edge4" class="edge">
<title>[root] aws_iam_policy_attachment.attach (expand)-&gt;[root] aws_iam_role.hpc_iam_role (expand)</title>
<path fill="none" stroke="#000000" d="M157.3734,-227.3157C160.7805,-216.3848 165.193,-202.228 169.0387,-189.89"/>
<polygon fill="#000000" stroke="#000000" points="172.4669,-190.6532 172.1012,-180.0646 165.784,-188.5701 172.4669,-190.6532"/>
</g>
<!-- [root] aws_iam_role.hpc_iam_role (expand)&#45;&gt;[root] provider[&quot;registry.terraform.io/hashicorp/aws&quot;] -->
<g id="edge5" class="edge">
<title>[root] aws_iam_role.hpc_iam_role (expand)-&gt;[root] provider["registry.terraform.io/hashicorp/aws"]</title>
<path fill="none" stroke="#000000" d="M204.3284,-143.7623C242.7617,-117.4081 313.7552,-68.7268 355.2393,-40.2806"/>
<polygon fill="#000000" stroke="#000000" points="357.3534,-43.0748 363.6213,-34.5329 353.3947,-37.3017 357.3534,-43.0748"/>
</g>
<!-- [root] aws_instance.hpc_aws_instance (expand) -->
<g id="node5" class="node">
<title>[root] aws_instance.hpc_aws_instance (expand)</title>
<polygon fill="none" stroke="#000000" points="1203.7172,-346.8313 1007.7464,-346.8313 1007.7464,-310.8313 1203.7172,-310.8313 1203.7172,-346.8313"/>
<text text-anchor="middle" x="1105.7318" y="-324.6313" font-family="Times,serif" font-size="14.00" fill="#000000">aws_instance.hpc_aws_instance</text>
</g>
<!-- [root] aws_instance.hpc_aws_instance (expand)&#45;&gt;[root] aws_iam_instance_profile.hpc_iam_profile (expand) -->
<g id="edge6" class="edge">
<title>[root] aws_instance.hpc_aws_instance (expand)-&gt;[root] aws_iam_instance_profile.hpc_iam_profile (expand)</title>
<path fill="none" stroke="#000000" d="M1027.1832,-310.7313C969.6657,-297.4776 891.5673,-279.4814 831.912,-265.735"/>
<polygon fill="#000000" stroke="#000000" points="832.6577,-262.3152 822.1271,-263.4803 831.0858,-269.1364 832.6577,-262.3152"/>
</g>
<!-- [root] aws_network_interface.hpc_interface (expand) -->
<g id="node7" class="node">
<title>[root] aws_network_interface.hpc_interface (expand)</title>
<polygon fill="none" stroke="#000000" points="1625.0064,-263.4156 1398.4572,-263.4156 1398.4572,-227.4156 1625.0064,-227.4156 1625.0064,-263.4156"/>
<text text-anchor="middle" x="1511.7318" y="-241.2156" font-family="Times,serif" font-size="14.00" fill="#000000">aws_network_interface.hpc_interface</text>
</g>
<!-- [root] aws_instance.hpc_aws_instance (expand)&#45;&gt;[root] aws_network_interface.hpc_interface (expand) -->
<g id="edge7" class="edge">
<title>[root] aws_instance.hpc_aws_instance (expand)-&gt;[root] aws_network_interface.hpc_interface (expand)</title>
<path fill="none" stroke="#000000" d="M1203.8896,-311.3844C1258.7019,-301.3369 1328.1581,-288.1 1389.7318,-274.8313 1402.6308,-272.0517 1416.2546,-268.9409 1429.5383,-265.8113"/>
<polygon fill="#000000" stroke="#000000" points="1430.6915,-269.1348 1439.6126,-263.4195 1429.0745,-262.3241 1430.6915,-269.1348"/>
</g>
<!-- [root] var.PRIVATE_KEY_PATH -->
<g id="node20" class="node">
<title>[root] var.PRIVATE_KEY_PATH</title>
<polygon fill="none" stroke="#000000" points="1060.5195,-263.4156 890.9441,-263.4156 890.9441,-227.4156 1066.5195,-227.4156 1066.5195,-257.4156 1060.5195,-263.4156"/>
<polyline fill="none" stroke="#000000" points="1060.5195,-263.4156 1060.5195,-257.4156 "/>
<polyline fill="none" stroke="#000000" points="1066.5195,-257.4156 1060.5195,-257.4156 "/>
<text text-anchor="middle" x="978.7318" y="-241.2156" font-family="Times,serif" font-size="14.00" fill="#000000">var.PRIVATE_KEY_PATH</text>
</g>
<!-- [root] aws_instance.hpc_aws_instance (expand)&#45;&gt;[root] var.PRIVATE_KEY_PATH -->
<g id="edge9" class="edge">
<title>[root] aws_instance.hpc_aws_instance (expand)-&gt;[root] var.PRIVATE_KEY_PATH</title>
<path fill="none" stroke="#000000" d="M1078.1747,-310.7313C1059.6185,-298.5433 1034.9565,-282.3449 1014.8351,-269.1289"/>
<polygon fill="#000000" stroke="#000000" points="1016.5149,-266.0448 1006.2351,-263.4803 1012.672,-271.8956 1016.5149,-266.0448"/>
</g>
<!-- [root] local.provision_commands 
(expand) -->
<g id="node23" class="node">
<title>[root] local.provision_commands 
(expand)</title>
<ellipse fill="none" stroke="#000000" cx="1232.7318" cy="-245.4156" rx="148.4537" ry="29.3315"/>
<text text-anchor="middle" x="1232.7318" y="-249.6156" font-family="Times,serif" font-size="14.00" fill="#000000">[root] local.provision_commands </text>
<text text-anchor="middle" x="1232.7318" y="-232.8156" font-family="Times,serif" font-size="14.00" fill="#000000">(expand)</text>
</g>
<!-- [root] aws_instance.hpc_aws_instance (expand)&#45;&gt;[root] local.provision_commands 
(expand) -->
<g id="edge8" class="edge">
<title>[root] aws_instance.hpc_aws_instance (expand)-&gt;[root] local.provision_commands 
(expand)</title>
<path fill="none" stroke="#000000" d="M1133.2889,-310.7313C1147.3289,-301.5097 1164.8642,-289.9921 1181.2836,-279.2077"/>
<polygon fill="#000000" stroke="#000000" points="1183.3068,-282.0662 1189.7437,-273.6509 1179.4639,-276.2154 1183.3068,-282.0662"/>
</g>
<!-- [root] aws_internet_gateway.hpc_igw (expand) -->
<g id="node6" class="node">
<title>[root] aws_internet_gateway.hpc_igw (expand)</title>
<polygon fill="none" stroke="#000000" points="527.112,-180 334.3516,-180 334.3516,-144 527.112,-144 527.112,-180"/>
<text text-anchor="middle" x="430.7318" y="-157.8" font-family="Times,serif" font-size="14.00" fill="#000000">aws_internet_gateway.hpc_igw</text>
</g>
<!-- [root] aws_vpc.hpc_vpc (expand) -->
<g id="node14" class="node">
<title>[root] aws_vpc.hpc_vpc (expand)</title>
<polygon fill="none" stroke="#000000" points="488.6414,-108 372.8222,-108 372.8222,-72 488.6414,-72 488.6414,-108"/>
<text text-anchor="middle" x="430.7318" y="-85.8" font-family="Times,serif" font-size="14.00" fill="#000000">aws_vpc.hpc_vpc</text>
</g>
<!-- [root] aws_internet_gateway.hpc_igw (expand)&#45;&gt;[root] aws_vpc.hpc_vpc (expand) -->
<g id="edge10" class="edge">
<title>[root] aws_internet_gateway.hpc_igw (expand)-&gt;[root] aws_vpc.hpc_vpc (expand)</title>
<path fill="none" stroke="#000000" d="M430.7318,-143.8314C430.7318,-136.131 430.7318,-126.9743 430.7318,-118.4166"/>
<polygon fill="#000000" stroke="#000000" points="434.2319,-118.4132 430.7318,-108.4133 427.2319,-118.4133 434.2319,-118.4132"/>
</g>
<!-- [root] aws_security_group.allow_ssh_sg (expand) -->
<g id="node11" class="node">
<title>[root] aws_security_group.allow_ssh_sg (expand)</title>
<polygon fill="none" stroke="#000000" points="1295.4102,-180 1088.0534,-180 1088.0534,-144 1295.4102,-144 1295.4102,-180"/>
<text text-anchor="middle" x="1191.7318" y="-157.8" font-family="Times,serif" font-size="14.00" fill="#000000">aws_security_group.allow_ssh_sg</text>
</g>
<!-- [root] aws_network_interface.hpc_interface (expand)&#45;&gt;[root] aws_security_group.allow_ssh_sg (expand) -->
<g id="edge11" class="edge">
<title>[root] aws_network_interface.hpc_interface (expand)-&gt;[root] aws_security_group.allow_ssh_sg (expand)</title>
<path fill="none" stroke="#000000" d="M1442.2966,-227.3157C1391.8717,-214.1712 1323.5526,-196.3622 1270.9892,-182.6603"/>
<polygon fill="#000000" stroke="#000000" points="1271.591,-179.2003 1261.0315,-180.0646 1269.8253,-185.974 1271.591,-179.2003"/>
</g>
<!-- [root] aws_subnet.hpc_subnet_public (expand) -->
<g id="node13" class="node">
<title>[root] aws_subnet.hpc_subnet_public (expand)</title>
<polygon fill="none" stroke="#000000" points="735.8081,-180 545.6555,-180 545.6555,-144 735.8081,-144 735.8081,-180"/>
<text text-anchor="middle" x="640.7318" y="-157.8" font-family="Times,serif" font-size="14.00" fill="#000000">aws_subnet.hpc_subnet_public</text>
</g>
<!-- [root] aws_network_interface.hpc_interface (expand)&#45;&gt;[root] aws_subnet.hpc_subnet_public (expand) -->
<g id="edge12" class="edge">
<title>[root] aws_network_interface.hpc_interface (expand)-&gt;[root] aws_subnet.hpc_subnet_public (expand)</title>
<path fill="none" stroke="#000000" d="M1445.6445,-227.3847C1427.6285,-223.0449 1408.0312,-218.8459 1389.7318,-216 1162.0259,-180.5872 891.689,-168.333 746.1465,-164.1397"/>
<polygon fill="#000000" stroke="#000000" points="745.9798,-160.6337 735.8855,-163.8515 745.7832,-167.631 745.9798,-160.6337"/>
</g>
<!-- [root] local.local_host_2_ip (expand) -->
<g id="node24" class="node">
<title>[root] local.local_host_2_ip (expand)</title>
<ellipse fill="none" stroke="#000000" cx="2426.7318" cy="-162" rx="155.0837" ry="18"/>
<text text-anchor="middle" x="2426.7318" y="-157.8" font-family="Times,serif" font-size="14.00" fill="#000000">[root] local.local_host_2_ip (expand)</text>
</g>
<!-- [root] aws_network_interface.hpc_interface (expand)&#45;&gt;[root] local.local_host_2_ip (expand) -->
<g id="edge13" class="edge">
<title>[root] aws_network_interface.hpc_interface (expand)-&gt;[root] local.local_host_2_ip (expand)</title>
<path fill="none" stroke="#000000" d="M1622.011,-227.3855C1650.5255,-223.1762 1681.2228,-219.0404 1709.7318,-216 1954.641,-189.8809 2017.3688,-201.4409 2262.7318,-180 2276.9901,-178.754 2291.9305,-177.3087 2306.7436,-175.7893"/>
<polygon fill="#000000" stroke="#000000" points="2307.3836,-179.2417 2316.9684,-174.7271 2306.6603,-172.2792 2307.3836,-179.2417"/>
</g>
<!-- [root] aws_route_table.hpc_public_route_table (expand) -->
<g id="node8" class="node">
<title>[root] aws_route_table.hpc_public_route_table (expand)</title>
<polygon fill="none" stroke="#000000" points="558.6608,-263.4156 314.8028,-263.4156 314.8028,-227.4156 558.6608,-227.4156 558.6608,-263.4156"/>
<text text-anchor="middle" x="436.7318" y="-241.2156" font-family="Times,serif" font-size="14.00" fill="#000000">aws_route_table.hpc_public_route_table</text>
</g>
<!-- [root] aws_route_table.hpc_public_route_table (expand)&#45;&gt;[root] aws_internet_gateway.hpc_igw (expand) -->
<g id="edge14" class="edge">
<title>[root] aws_route_table.hpc_public_route_table (expand)-&gt;[root] aws_internet_gateway.hpc_igw (expand)</title>
<path fill="none" stroke="#000000" d="M435.4299,-227.3157C434.6515,-216.4941 433.6457,-202.5108 432.7646,-190.2607"/>
<polygon fill="#000000" stroke="#000000" points="436.2397,-189.7877 432.0312,-180.0646 429.2577,-190.29 436.2397,-189.7877"/>
</g>
<!-- [root] aws_route_table_association.hpc_route_table_public_subnet (expand) -->
<g id="node9" class="node">
<title>[root] aws_route_table_association.hpc_route_table_public_subnet (expand)</title>
<polygon fill="none" stroke="#000000" points="764.915,-346.8313 408.5486,-346.8313 408.5486,-310.8313 764.915,-310.8313 764.915,-346.8313"/>
<text text-anchor="middle" x="586.7318" y="-324.6313" font-family="Times,serif" font-size="14.00" fill="#000000">aws_route_table_association.hpc_route_table_public_subnet</text>
</g>
<!-- [root] aws_route_table_association.hpc_route_table_public_subnet (expand)&#45;&gt;[root] aws_route_table.hpc_public_route_table (expand) -->
<g id="edge15" class="edge">
<title>[root] aws_route_table_association.hpc_route_table_public_subnet (expand)-&gt;[root] aws_route_table.hpc_public_route_table (expand)</title>
<path fill="none" stroke="#000000" d="M554.184,-310.7313C531.8742,-298.3247 502.0916,-281.7625 478.0999,-268.4206"/>
<polygon fill="#000000" stroke="#000000" points="479.6566,-265.2816 469.216,-263.4803 476.2545,-271.3993 479.6566,-265.2816"/>
</g>
<!-- [root] aws_route_table_association.hpc_route_table_public_subnet (expand)&#45;&gt;[root] aws_subnet.hpc_subnet_public (expand) -->
<g id="edge16" class="edge">
<title>[root] aws_route_table_association.hpc_route_table_public_subnet (expand)-&gt;[root] aws_subnet.hpc_subnet_public (expand)</title>
<path fill="none" stroke="#000000" d="M587.5258,-310.6444C589.0269,-287.8309 593.3462,-247.8431 605.7318,-216 609.3988,-206.5722 614.8504,-197.058 620.3654,-188.698"/>
<polygon fill="#000000" stroke="#000000" points="623.2557,-190.6719 626.0634,-180.4559 617.4977,-186.6913 623.2557,-190.6719"/>
</g>
<!-- [root] aws_s3_object.ansible_script (expand) -->
<g id="node10" class="node">
<title>[root] aws_s3_object.ansible_script (expand)</title>
<polygon fill="none" stroke="#000000" points="1582.4089,-346.8313 1403.0547,-346.8313 1403.0547,-310.8313 1582.4089,-310.8313 1582.4089,-346.8313"/>
<text text-anchor="middle" x="1492.7318" y="-324.6313" font-family="Times,serif" font-size="14.00" fill="#000000">aws_s3_object.ansible_script</text>
</g>
<!-- [root] data.archive_file.ansible_script (expand) -->
<g id="node15" class="node">
<title>[root] data.archive_file.ansible_script (expand)</title>
<polygon fill="none" stroke="#000000" points="2041.159,-263.4156 1850.3046,-263.4156 1850.3046,-227.4156 2041.159,-227.4156 2041.159,-263.4156"/>
<text text-anchor="middle" x="1945.7318" y="-241.2156" font-family="Times,serif" font-size="14.00" fill="#000000">data.archive_file.ansible_script</text>
</g>
<!-- [root] aws_s3_object.ansible_script (expand)&#45;&gt;[root] data.archive_file.ansible_script (expand) -->
<g id="edge17" class="edge">
<title>[root] aws_s3_object.ansible_script (expand)-&gt;[root] data.archive_file.ansible_script (expand)</title>
<path fill="none" stroke="#000000" d="M1582.5583,-312.3997C1585.6527,-311.8654 1588.7175,-311.3411 1591.7318,-310.8313 1693.7496,-293.5756 1720.2077,-294.7873 1821.7318,-274.8313 1835.3581,-272.1528 1849.7566,-269.0196 1863.7295,-265.8155"/>
<polygon fill="#000000" stroke="#000000" points="1864.8619,-269.1457 1873.8116,-263.4753 1863.2792,-262.327 1864.8619,-269.1457"/>
</g>
<!-- [root] aws_s3_object.ansible_script (expand)&#45;&gt;[root] provider[&quot;registry.terraform.io/hashicorp/aws&quot;] -->
<g id="edge18" class="edge">
<title>[root] aws_s3_object.ansible_script (expand)-&gt;[root] provider["registry.terraform.io/hashicorp/aws"]</title>
<path fill="none" stroke="#000000" d="M1560.7367,-310.7629C1592.2224,-300.8871 1624.6699,-288.0055 1633.7318,-274.8313 1648.5501,-253.2884 1648.2843,-237.7233 1633.7318,-216 1540.1148,-76.2524 1447.6891,-109.5702 1283.7318,-72 1159.1885,-43.4614 826.5687,-29.3272 603.5375,-22.8534"/>
<polygon fill="#000000" stroke="#000000" points="603.4291,-19.349 593.3327,-22.5603 603.2281,-26.3461 603.4291,-19.349"/>
</g>
<!-- [root] var.s3_bucket -->
<g id="node22" class="node">
<title>[root] var.s3_bucket</title>
<polygon fill="none" stroke="#000000" points="1806.8715,-263.4156 1718.5921,-263.4156 1718.5921,-227.4156 1812.8715,-227.4156 1812.8715,-257.4156 1806.8715,-263.4156"/>
<polyline fill="none" stroke="#000000" points="1806.8715,-263.4156 1806.8715,-257.4156 "/>
<polyline fill="none" stroke="#000000" points="1812.8715,-257.4156 1806.8715,-257.4156 "/>
<text text-anchor="middle" x="1765.7318" y="-241.2156" font-family="Times,serif" font-size="14.00" fill="#000000">var.s3_bucket</text>
</g>
<!-- [root] aws_s3_object.ansible_script (expand)&#45;&gt;[root] var.s3_bucket -->
<g id="edge19" class="edge">
<title>[root] aws_s3_object.ansible_script (expand)-&gt;[root] var.s3_bucket</title>
<path fill="none" stroke="#000000" d="M1551.9687,-310.7313C1598.4283,-296.5355 1662.6936,-276.8991 1708.603,-262.8715"/>
<polygon fill="#000000" stroke="#000000" points="1709.8573,-266.148 1718.398,-259.8786 1707.8117,-259.4535 1709.8573,-266.148"/>
</g>
<!-- [root] aws_security_group.allow_ssh_sg (expand)&#45;&gt;[root] aws_vpc.hpc_vpc (expand) -->
<g id="edge20" class="edge">
<title>[root] aws_security_group.allow_ssh_sg (expand)-&gt;[root] aws_vpc.hpc_vpc (expand)</title>
<path fill="none" stroke="#000000" d="M1087.9111,-152.1773C929.7465,-137.213 632.7396,-109.1124 499.0328,-96.4621"/>
<polygon fill="#000000" stroke="#000000" points="499.2058,-92.9629 488.9206,-95.5054 498.5464,-99.9318 499.2058,-92.9629"/>
</g>
<!-- [root] var.ingress_openpbs_ports -->
<g id="node21" class="node">
<title>[root] var.ingress_openpbs_ports</title>
<polygon fill="none" stroke="#000000" points="1268.4173,-108 1109.0463,-108 1109.0463,-72 1274.4173,-72 1274.4173,-102 1268.4173,-108"/>
<polyline fill="none" stroke="#000000" points="1268.4173,-108 1268.4173,-102 "/>
<polyline fill="none" stroke="#000000" points="1274.4173,-102 1268.4173,-102 "/>
<text text-anchor="middle" x="1191.7318" y="-85.8" font-family="Times,serif" font-size="14.00" fill="#000000">var.ingress_openpbs_ports</text>
</g>
<!-- [root] aws_security_group.allow_ssh_sg (expand)&#45;&gt;[root] var.ingress_openpbs_ports -->
<g id="edge21" class="edge">
<title>[root] aws_security_group.allow_ssh_sg (expand)-&gt;[root] var.ingress_openpbs_ports</title>
<path fill="none" stroke="#000000" d="M1191.7318,-143.8314C1191.7318,-136.131 1191.7318,-126.9743 1191.7318,-118.4166"/>
<polygon fill="#000000" stroke="#000000" points="1195.2319,-118.4132 1191.7318,-108.4133 1188.2319,-118.4133 1195.2319,-118.4132"/>
</g>
<!-- [root] aws_subnet.hpc_subnet_private (expand) -->
<g id="node12" class="node">
<title>[root] aws_subnet.hpc_subnet_private (expand)</title>
<polygon fill="none" stroke="#000000" points="388.1833,-346.8313 193.2803,-346.8313 193.2803,-310.8313 388.1833,-310.8313 388.1833,-346.8313"/>
<text text-anchor="middle" x="290.7318" y="-324.6313" font-family="Times,serif" font-size="14.00" fill="#000000">aws_subnet.hpc_subnet_private</text>
</g>
<!-- [root] aws_subnet.hpc_subnet_private (expand)&#45;&gt;[root] aws_vpc.hpc_vpc (expand) -->
<g id="edge22" class="edge">
<title>[root] aws_subnet.hpc_subnet_private (expand)-&gt;[root] aws_vpc.hpc_vpc (expand)</title>
<path fill="none" stroke="#000000" d="M288.8971,-310.7614C286.2611,-274.7769 285.5206,-193.3847 325.7318,-144 336.4502,-130.8364 351.2216,-120.5385 366.3023,-112.6298"/>
<polygon fill="#000000" stroke="#000000" points="368.2689,-115.5632 375.6987,-108.0101 365.1804,-109.2813 368.2689,-115.5632"/>
</g>
<!-- [root] aws_subnet.hpc_subnet_public (expand)&#45;&gt;[root] aws_vpc.hpc_vpc (expand) -->
<g id="edge23" class="edge">
<title>[root] aws_subnet.hpc_subnet_public (expand)-&gt;[root] aws_vpc.hpc_vpc (expand)</title>
<path fill="none" stroke="#000000" d="M588.011,-143.9243C559.178,-134.0387 523.2837,-121.7321 493.0687,-111.3726"/>
<polygon fill="#000000" stroke="#000000" points="494.0689,-108.0156 483.4743,-108.0831 491.7986,-114.6373 494.0689,-108.0156"/>
</g>
<!-- [root] aws_vpc.hpc_vpc (expand)&#45;&gt;[root] provider[&quot;registry.terraform.io/hashicorp/aws&quot;] -->
<g id="edge24" class="edge">
<title>[root] aws_vpc.hpc_vpc (expand)-&gt;[root] provider["registry.terraform.io/hashicorp/aws"]</title>
<path fill="none" stroke="#000000" d="M419.8811,-71.8314C414.8803,-63.4579 408.8511,-53.3626 403.3717,-44.1878"/>
<polygon fill="#000000" stroke="#000000" points="406.2664,-42.2085 398.134,-35.4177 400.2566,-45.7978 406.2664,-42.2085"/>
</g>
<!-- [root] provider[&quot;registry.terraform.io/hashicorp/archive&quot;] -->
<g id="node17" class="node">
<title>[root] provider["registry.terraform.io/hashicorp/archive"]</title>
<polygon fill="none" stroke="#000000" points="1959.7318,-180 1665.8351,-162 1959.7318,-144 2253.6285,-162 1959.7318,-180"/>
<text text-anchor="middle" x="1959.7318" y="-157.8" font-family="Times,serif" font-size="14.00" fill="#000000">provider["registry.terraform.io/hashicorp/archive"]</text>
</g>
<!-- [root] data.archive_file.ansible_script (expand)&#45;&gt;[root] provider[&quot;registry.terraform.io/hashicorp/archive&quot;] -->
<g id="edge25" class="edge">
<title>[root] data.archive_file.ansible_script (expand)-&gt;[root] provider["registry.terraform.io/hashicorp/archive"]</title>
<path fill="none" stroke="#000000" d="M1948.7696,-227.3157C1950.5858,-216.4941 1952.9327,-202.5108 1954.9887,-190.2607"/>
<polygon fill="#000000" stroke="#000000" points="1958.4964,-190.506 1956.6999,-180.0646 1951.5929,-189.3473 1958.4964,-190.506"/>
</g>
<!-- [root] data.external.datasource_host_2_ip (expand) -->
<g id="node16" class="node">
<title>[root] data.external.datasource_host_2_ip (expand)</title>
<polygon fill="none" stroke="#000000" points="3071.7178,-263.4156 2857.7458,-263.4156 2857.7458,-227.4156 3071.7178,-227.4156 3071.7178,-263.4156"/>
<text text-anchor="middle" x="2964.7318" y="-241.2156" font-family="Times,serif" font-size="14.00" fill="#000000">data.external.datasource_host_2_ip</text>
</g>
<!-- [root] provider[&quot;registry.terraform.io/hashicorp/external&quot;] -->
<g id="node19" class="node">
<title>[root] provider["registry.terraform.io/hashicorp/external"]</title>
<polygon fill="none" stroke="#000000" points="2964.7318,-180 2667.2447,-162 2964.7318,-144 3262.2189,-162 2964.7318,-180"/>
<text text-anchor="middle" x="2964.7318" y="-157.8" font-family="Times,serif" font-size="14.00" fill="#000000">provider["registry.terraform.io/hashicorp/external"]</text>
</g>
<!-- [root] data.external.datasource_host_2_ip (expand)&#45;&gt;[root] provider[&quot;registry.terraform.io/hashicorp/external&quot;] -->
<g id="edge26" class="edge">
<title>[root] data.external.datasource_host_2_ip (expand)-&gt;[root] provider["registry.terraform.io/hashicorp/external"]</title>
<path fill="none" stroke="#000000" d="M2964.7318,-227.3157C2964.7318,-216.4941 2964.7318,-202.5108 2964.7318,-190.2607"/>
<polygon fill="#000000" stroke="#000000" points="2968.2319,-190.0646 2964.7318,-180.0646 2961.2319,-190.0647 2968.2319,-190.0646"/>
</g>
<!-- [root] local.lines (expand) -->
<g id="node26" class="node">
<title>[root] local.lines (expand)</title>
<ellipse fill="none" stroke="#000000" cx="2426.7318" cy="-90" rx="111.677" ry="18"/>
<text text-anchor="middle" x="2426.7318" y="-85.8" font-family="Times,serif" font-size="14.00" fill="#000000">[root] local.lines (expand)</text>
</g>
<!-- [root] local.local_host_2_ip (expand)&#45;&gt;[root] local.lines (expand) -->
<g id="edge29" class="edge">
<title>[root] local.local_host_2_ip (expand)-&gt;[root] local.lines (expand)</title>
<path fill="none" stroke="#000000" d="M2426.7318,-143.8314C2426.7318,-136.131 2426.7318,-126.9743 2426.7318,-118.4166"/>
<polygon fill="#000000" stroke="#000000" points="2430.2319,-118.4132 2426.7318,-108.4133 2423.2319,-118.4133 2430.2319,-118.4132"/>
</g>
<!-- [root] local.datasource_host_2_ip (expand) -->
<g id="node25" class="node">
<title>[root] local.datasource_host_2_ip (expand)</title>
<ellipse fill="none" stroke="#000000" cx="3297.7318" cy="-328.8313" rx="177.6179" ry="18"/>
<text text-anchor="middle" x="3297.7318" y="-324.6313" font-family="Times,serif" font-size="14.00" fill="#000000">[root] local.datasource_host_2_ip (expand)</text>
</g>
<!-- [root] local.datasource_host_2_ip (expand)&#45;&gt;[root] data.external.datasource_host_2_ip (expand) -->
<g id="edge27" class="edge">
<title>[root] local.datasource_host_2_ip (expand)-&gt;[root] data.external.datasource_host_2_ip (expand)</title>
<path fill="none" stroke="#000000" d="M3230.7449,-312.0512C3177.7113,-298.7665 3103.402,-280.1522 3046.7978,-265.973"/>
<polygon fill="#000000" stroke="#000000" points="3047.3528,-262.5039 3036.802,-263.469 3045.6518,-269.2941 3047.3528,-262.5039"/>
</g>
<!-- [root] local.raw_lines (expand) -->
<g id="node27" class="node">
<title>[root] local.raw_lines (expand)</title>
<ellipse fill="none" stroke="#000000" cx="2426.7318" cy="-18" rx="130.7797" ry="18"/>
<text text-anchor="middle" x="2426.7318" y="-13.8" font-family="Times,serif" font-size="14.00" fill="#000000">[root] local.raw_lines (expand)</text>
</g>
<!-- [root] local.lines (expand)&#45;&gt;[root] local.raw_lines (expand) -->
<g id="edge28" class="edge">
<title>[root] local.lines (expand)-&gt;[root] local.raw_lines (expand)</title>
<path fill="none" stroke="#000000" d="M2426.7318,-71.8314C2426.7318,-64.131 2426.7318,-54.9743 2426.7318,-46.4166"/>
<polygon fill="#000000" stroke="#000000" points="2430.2319,-46.4132 2426.7318,-36.4133 2423.2319,-46.4133 2430.2319,-46.4132"/>
</g>
<!-- [root] local.provision_commands (expand) -->
<g id="node28" class="node">
<title>[root] local.provision_commands (expand)</title>
<ellipse fill="none" stroke="#000000" cx="1776.7318" cy="-328.8313" rx="176.4953" ry="18"/>
<text text-anchor="middle" x="1776.7318" y="-324.6313" font-family="Times,serif" font-size="14.00" fill="#000000">[root] local.provision_commands (expand)</text>
</g>
<!-- [root] local.provision_commands (expand)&#45;&gt;[root] data.archive_file.ansible_script (expand) -->
<g id="edge30" class="edge">
<title>[root] local.provision_commands (expand)-&gt;[root] data.archive_file.ansible_script (expand)</title>
<path fill="none" stroke="#000000" d="M1812.5724,-311.141C1838.0783,-298.5517 1872.5567,-281.5337 1900.039,-267.9689"/>
<polygon fill="#000000" stroke="#000000" points="1901.6498,-271.077 1909.0678,-263.5124 1898.5515,-264.8 1901.6498,-271.077"/>
</g>
<!-- [root] local.provision_commands (expand)&#45;&gt;[root] var.s3_bucket -->
<g id="edge31" class="edge">
<title>[root] local.provision_commands (expand)-&gt;[root] var.s3_bucket</title>
<path fill="none" stroke="#000000" d="M1774.345,-310.7313C1772.9179,-299.9097 1771.074,-285.9265 1769.4585,-273.6763"/>
<polygon fill="#000000" stroke="#000000" points="1772.8914,-272.9368 1768.114,-263.4803 1765.9515,-273.8521 1772.8914,-272.9368"/>
</g>
<!-- [root] local.string_local_host_2_ip (expand) -->
<g id="node29" class="node">
<title>[root] local.string_local_host_2_ip (expand)</title>
<ellipse fill="none" stroke="#000000" cx="2216.7318" cy="-328.8313" rx="181.73" ry="18"/>
<text text-anchor="middle" x="2216.7318" y="-324.6313" font-family="Times,serif" font-size="14.00" fill="#000000">[root] local.string_local_host_2_ip (expand)</text>
</g>
<!-- [root] local.string_local_host_2_ip (expand)&#45;&gt;[root] local.local_host_2_ip (expand) -->
<g id="edge32" class="edge">
<title>[root] local.string_local_host_2_ip (expand)-&gt;[root] local.local_host_2_ip (expand)</title>
<path fill="none" stroke="#000000" d="M2239.6052,-310.6598C2277.5755,-280.4949 2353.6399,-220.0667 2396.1673,-186.2815"/>
<polygon fill="#000000" stroke="#000000" points="2398.5516,-188.8574 2404.2044,-179.8965 2394.1974,-183.3764 2398.5516,-188.8574"/>
</g>
<!-- [root] output.aws_hpc_instance (expand) -->
<g id="node30" class="node">
<title>[root] output.aws_hpc_instance (expand)</title>
<ellipse fill="none" stroke="#000000" cx="1382.7318" cy="-400.8313" rx="169.5333" ry="18"/>
<text text-anchor="middle" x="1382.7318" y="-396.6313" font-family="Times,serif" font-size="14.00" fill="#000000">[root] output.aws_hpc_instance (expand)</text>
</g>
<!-- [root] output.aws_hpc_instance (expand)&#45;&gt;[root] aws_instance.hpc_aws_instance (expand) -->
<g id="edge33" class="edge">
<title>[root] output.aws_hpc_instance (expand)-&gt;[root] aws_instance.hpc_aws_instance (expand)</title>
<path fill="none" stroke="#000000" d="M1318.4862,-384.1321C1278.7493,-373.8033 1227.4345,-360.4652 1185.1571,-349.4761"/>
<polygon fill="#000000" stroke="#000000" points="1186.0107,-346.0818 1175.4518,-346.9534 1184.2496,-352.8566 1186.0107,-346.0818"/>
</g>
<!-- [root] output.datasource_host_2_ip_out (expand) -->
<g id="node31" class="node">
<title>[root] output.datasource_host_2_ip_out (expand)</title>
<ellipse fill="none" stroke="#000000" cx="3364.7318" cy="-400.8313" rx="200.7801" ry="18"/>
<text text-anchor="middle" x="3364.7318" y="-396.6313" font-family="Times,serif" font-size="14.00" fill="#000000">[root] output.datasource_host_2_ip_out (expand)</text>
</g>
<!-- [root] output.datasource_host_2_ip_out (expand)&#45;&gt;[root] local.datasource_host_2_ip (expand) -->
<g id="edge34" class="edge">
<title>[root] output.datasource_host_2_ip_out (expand)-&gt;[root] local.datasource_host_2_ip (expand)</title>
<path fill="none" stroke="#000000" d="M3347.8249,-382.6626C3339.9505,-374.2007 3330.4398,-363.9802 3321.8305,-354.7284"/>
<polygon fill="#000000" stroke="#000000" points="3324.241,-352.1809 3314.8664,-347.2446 3319.1165,-356.9496 3324.241,-352.1809"/>
</g>
<!-- [root] output.local_host_2_ip_out (expand) -->
<g id="node32" class="node">
<title>[root] output.local_host_2_ip_out (expand)</title>
<ellipse fill="none" stroke="#000000" cx="2422.7318" cy="-400.8313" rx="178.2459" ry="18"/>
<text text-anchor="middle" x="2422.7318" y="-396.6313" font-family="Times,serif" font-size="14.00" fill="#000000">[root] output.local_host_2_ip_out (expand)</text>
</g>
<!-- [root] output.local_host_2_ip_out (expand)&#45;&gt;[root] local.local_host_2_ip (expand) -->
<g id="edge35" class="edge">
<title>[root] output.local_host_2_ip_out (expand)-&gt;[root] local.local_host_2_ip (expand)</title>
<path fill="none" stroke="#000000" d="M2423.039,-382.4872C2423.7344,-340.9681 2425.4326,-239.5731 2426.2613,-190.0897"/>
<polygon fill="#000000" stroke="#000000" points="2429.7609,-190.1369 2426.429,-180.0797 2422.7619,-190.0197 2429.7609,-190.1369"/>
</g>
<!-- [root] provider[&quot;registry.terraform.io/hashicorp/archive&quot;] (close) -->
<g id="node33" class="node">
<title>[root] provider["registry.terraform.io/hashicorp/archive"] (close)</title>
<ellipse fill="none" stroke="#000000" cx="1927.7318" cy="-400.8313" rx="260.5208" ry="18"/>
<text text-anchor="middle" x="1927.7318" y="-396.6313" font-family="Times,serif" font-size="14.00" fill="#000000">[root] provider["registry.terraform.io/hashicorp/archive"] (close)</text>
</g>
<!-- [root] provider[&quot;registry.terraform.io/hashicorp/archive&quot;] (close)&#45;&gt;[root] data.archive_file.ansible_script (expand) -->
<g id="edge36" class="edge">
<title>[root] provider["registry.terraform.io/hashicorp/archive"] (close)-&gt;[root] data.archive_file.ansible_script (expand)</title>
<path fill="none" stroke="#000000" d="M1942.8458,-382.6081C1950.0867,-372.6899 1957.9842,-359.8171 1961.7318,-346.8313 1968.7504,-322.5114 1963.0589,-293.966 1956.5987,-273.3666"/>
<polygon fill="#000000" stroke="#000000" points="1959.8365,-272.0156 1953.3161,-263.665 1953.2058,-274.2592 1959.8365,-272.0156"/>
</g>
<!-- [root] provider[&quot;registry.terraform.io/hashicorp/aws&quot;] (close) -->
<g id="node34" class="node">
<title>[root] provider["registry.terraform.io/hashicorp/aws"] (close)</title>
<ellipse fill="none" stroke="#000000" cx="754.7318" cy="-400.8313" rx="247.2168" ry="18"/>
<text text-anchor="middle" x="754.7318" y="-396.6313" font-family="Times,serif" font-size="14.00" fill="#000000">[root] provider["registry.terraform.io/hashicorp/aws"] (close)</text>
</g>
<!-- [root] provider[&quot;registry.terraform.io/hashicorp/aws&quot;] (close)&#45;&gt;[root] aws_iam_policy_attachment.attach (expand) -->
<g id="edge37" class="edge">
<title>[root] provider["registry.terraform.io/hashicorp/aws"] (close)-&gt;[root] aws_iam_policy_attachment.attach (expand)</title>
<path fill="none" stroke="#000000" d="M540.4841,-391.7986C390.7519,-383.5909 212.7586,-369.2799 184.7318,-346.8313 162.926,-329.3655 155.361,-297.256 152.8249,-273.8331"/>
<polygon fill="#000000" stroke="#000000" points="156.3042,-273.4386 151.9804,-263.7662 149.3287,-274.0238 156.3042,-273.4386"/>
</g>
<!-- [root] provider[&quot;registry.terraform.io/hashicorp/aws&quot;] (close)&#45;&gt;[root] aws_instance.hpc_aws_instance (expand) -->
<g id="edge38" class="edge">
<title>[root] provider["registry.terraform.io/hashicorp/aws"] (close)-&gt;[root] aws_instance.hpc_aws_instance (expand)</title>
<path fill="none" stroke="#000000" d="M837.4694,-383.8595C888.509,-373.3898 954.2377,-359.907 1007.8586,-348.9078"/>
<polygon fill="#000000" stroke="#000000" points="1008.631,-352.3224 1017.7237,-346.8842 1007.2243,-345.4651 1008.631,-352.3224"/>
</g>
<!-- [root] provider[&quot;registry.terraform.io/hashicorp/aws&quot;] (close)&#45;&gt;[root] aws_route_table_association.hpc_route_table_public_subnet (expand) -->
<g id="edge39" class="edge">
<title>[root] provider["registry.terraform.io/hashicorp/aws"] (close)-&gt;[root] aws_route_table_association.hpc_route_table_public_subnet (expand)</title>
<path fill="none" stroke="#000000" d="M713.2037,-383.0335C690.5577,-373.3281 662.3227,-361.2274 638.2794,-350.9231"/>
<polygon fill="#000000" stroke="#000000" points="639.5193,-347.6466 628.9491,-346.9244 636.7618,-354.0807 639.5193,-347.6466"/>
</g>
<!-- [root] provider[&quot;registry.terraform.io/hashicorp/aws&quot;] (close)&#45;&gt;[root] aws_s3_object.ansible_script (expand) -->
<g id="edge40" class="edge">
<title>[root] provider["registry.terraform.io/hashicorp/aws"] (close)-&gt;[root] aws_s3_object.ansible_script (expand)</title>
<path fill="none" stroke="#000000" d="M902.7461,-386.3909C1048.3883,-372.1819 1266.7459,-350.8787 1392.943,-338.5668"/>
<polygon fill="#000000" stroke="#000000" points="1393.3768,-342.0412 1402.9896,-337.5866 1392.697,-335.0742 1393.3768,-342.0412"/>
</g>
<!-- [root] provider[&quot;registry.terraform.io/hashicorp/aws&quot;] (close)&#45;&gt;[root] aws_subnet.hpc_subnet_private (expand) -->
<g id="edge41" class="edge">
<title>[root] provider["registry.terraform.io/hashicorp/aws"] (close)-&gt;[root] aws_subnet.hpc_subnet_private (expand)</title>
<path fill="none" stroke="#000000" d="M645.9169,-384.6449C575.635,-374.1 482.2371,-359.9182 399.7318,-346.8313 399.2582,-346.7562 398.7835,-346.6808 398.3077,-346.6052"/>
<polygon fill="#000000" stroke="#000000" points="398.6077,-343.1088 388.1806,-344.9867 397.5029,-350.0211 398.6077,-343.1088"/>
</g>
<!-- [root] provider[&quot;registry.terraform.io/hashicorp/external&quot;] (close) -->
<g id="node35" class="node">
<title>[root] provider["registry.terraform.io/hashicorp/external"] (close)</title>
<ellipse fill="none" stroke="#000000" cx="2882.7318" cy="-400.8313" rx="263.3879" ry="18"/>
<text text-anchor="middle" x="2882.7318" y="-396.6313" font-family="Times,serif" font-size="14.00" fill="#000000">[root] provider["registry.terraform.io/hashicorp/external"] (close)</text>
</g>
<!-- [root] provider[&quot;registry.terraform.io/hashicorp/external&quot;] (close)&#45;&gt;[root] data.external.datasource_host_2_ip (expand) -->
<g id="edge42" class="edge">
<title>[root] provider["registry.terraform.io/hashicorp/external"] (close)-&gt;[root] data.external.datasource_host_2_ip (expand)</title>
<path fill="none" stroke="#000000" d="M2892.2987,-382.699C2906.618,-355.5595 2933.721,-304.1907 2950.4074,-272.5649"/>
<polygon fill="#000000" stroke="#000000" points="2953.6548,-273.9102 2955.2258,-263.4325 2947.4637,-270.6436 2953.6548,-273.9102"/>
</g>
<!-- [root] root -->
<g id="node36" class="node">
<title>[root] root</title>
<ellipse fill="none" stroke="#000000" cx="2216.7318" cy="-472.8313" rx="50.9823" ry="18"/>
<text text-anchor="middle" x="2216.7318" y="-468.6313" font-family="Times,serif" font-size="14.00" fill="#000000">[root] root</text>
</g>
<!-- [root] root&#45;&gt;[root] local.string_local_host_2_ip (expand) -->
<g id="edge43" class="edge">
<title>[root] root-&gt;[root] local.string_local_host_2_ip (expand)</title>
<path fill="none" stroke="#000000" d="M2216.7318,-454.5936C2216.7318,-430.0323 2216.7318,-386.0787 2216.7318,-357.1853"/>
<polygon fill="#000000" stroke="#000000" points="2220.2319,-356.9209 2216.7318,-346.9209 2213.2319,-356.9209 2220.2319,-356.9209"/>
</g>
<!-- [root] root&#45;&gt;[root] output.aws_hpc_instance (expand) -->
<g id="edge44" class="edge">
<title>[root] root-&gt;[root] output.aws_hpc_instance (expand)</title>
<path fill="none" stroke="#000000" d="M2167.0589,-468.543C2042.7772,-457.8136 1714.7442,-429.4942 1524.5842,-413.0775"/>
<polygon fill="#000000" stroke="#000000" points="1524.7752,-409.5811 1514.5112,-412.2079 1524.1731,-416.5552 1524.7752,-409.5811"/>
</g>
<!-- [root] root&#45;&gt;[root] output.datasource_host_2_ip_out (expand) -->
<g id="edge45" class="edge">
<title>[root] root-&gt;[root] output.datasource_host_2_ip_out (expand)</title>
<path fill="none" stroke="#000000" d="M2267.349,-470.4168C2408.1092,-463.5943 2816.1124,-443.0858 3154.7318,-418.8313 3173.3803,-417.4955 3192.95,-415.976 3212.3304,-414.3992"/>
<polygon fill="#000000" stroke="#000000" points="3212.7615,-417.8756 3222.442,-413.57 3212.1893,-410.8991 3212.7615,-417.8756"/>
</g>
<!-- [root] root&#45;&gt;[root] output.local_host_2_ip_out (expand) -->
<g id="edge46" class="edge">
<title>[root] root-&gt;[root] output.local_host_2_ip_out (expand)</title>
<path fill="none" stroke="#000000" d="M2253.0863,-460.1249C2283.5985,-449.4604 2327.785,-434.0166 2363.4131,-421.564"/>
<polygon fill="#000000" stroke="#000000" points="2364.9315,-424.741 2373.2167,-418.1375 2362.6218,-418.133 2364.9315,-424.741"/>
</g>
<!-- [root] root&#45;&gt;[root] provider[&quot;registry.terraform.io/hashicorp/archive&quot;] (close) -->
<g id="edge47" class="edge">
<title>[root] root-&gt;[root] provider["registry.terraform.io/hashicorp/archive"] (close)</title>
<path fill="none" stroke="#000000" d="M2175.0174,-462.4388C2131.3122,-451.5503 2061.597,-434.1818 2007.3128,-420.6577"/>
<polygon fill="#000000" stroke="#000000" points="2007.9157,-417.201 1997.3661,-418.1796 2006.2234,-423.9933 2007.9157,-417.201"/>
</g>
<!-- [root] root&#45;&gt;[root] provider[&quot;registry.terraform.io/hashicorp/aws&quot;] (close) -->
<g id="edge48" class="edge">
<title>[root] root-&gt;[root] provider["registry.terraform.io/hashicorp/aws"] (close)</title>
<path fill="none" stroke="#000000" d="M2165.9819,-470.332C1978.2954,-461.0889 1316.4662,-428.4954 969.9344,-411.4295"/>
<polygon fill="#000000" stroke="#000000" points="969.9348,-407.9254 959.7748,-410.9292 969.5905,-414.9169 969.9348,-407.9254"/>
</g>
<!-- [root] root&#45;&gt;[root] provider[&quot;registry.terraform.io/hashicorp/external&quot;] (close) -->
<g id="edge49" class="edge">
<title>[root] root-&gt;[root] provider["registry.terraform.io/hashicorp/external"] (close)</title>
<path fill="none" stroke="#000000" d="M2265.7044,-467.537C2362.6096,-457.0607 2582.3442,-433.3056 2731.6615,-417.1632"/>
<polygon fill="#000000" stroke="#000000" points="2732.2743,-420.6174 2741.8402,-416.0628 2731.5219,-413.658 2732.2743,-420.6174"/>
</g>
</g>
</svg>